{
  "accessors": [
    {
      "bufferView": 2,
      "componentType": 5126,
      "count": 41154,
      "max": [
        3.2834179401397705,
        3.6020240783691406,
        0.16411924362182617
      ],
      "min": [
        -3.273620843887329,
        -3.6020240783691406,
        -5.434581756591797
      ],
      "type": "VEC3"
    },
    {
      "bufferView": 2,
      "byteOffset": 493848,
      "componentType": 5126,
      "count": 41154,
      "max": [
        1.0,
        1.0,
        1.0
      ],
      "min": [
        -1.0,
        -1.0,
        -1.0
      ],
      "type": "VEC3"
    },
    {
      "bufferView": 3,
      "componentType": 5126,
      "count": 41154,
      "max": [
        1.0,
        1.0,
        1.0,
        1.0
      ],
      "min": [
        -1.0,
        -1.0,
        -1.0,
        -1.0
      ],
      "type": "VEC4"
    },
    {
      "bufferView": 1,
      "componentType": 5126,
      "count": 41154,
      "max": [
        0.9989311099052429,
        0.9980435967445374
      ],
      "min": [
        0.0011755175655707717,
        0.0011763905640691519
      ],
      "type": "VEC2"
    },
    {
      "bufferView": 0,
      "componentType": 5125,
      "count": 54822,
      "type": "SCALAR"
    },
    {
      "bufferView": 2,
      "byteOffset": 987696,
      "componentType": 5126,
      "count": 43760,
      "max": [
        3.340785503387451,
        3.168897867202759,
        0.2702709138393402
      ],
      "min": [
        -6.628327369689941,
        -4.228386878967285,
        -3.757617473602295
      ],
      "type": "VEC3"
    },
    {
      "bufferView": 2,
      "byteOffset": 1512816,
      "componentType": 5126,
      "count": 43760,
      "max": [
        0.9998669624328613,
        0.9996679425239563,
        0.9999958872795105
      ],
      "min": [
        -0.9999833106994629,
        -0.9996678829193115,
        -0.9996883869171143
      ],
      "type": "VEC3"
    },
    {
      "bufferView": 3,
      "byteOffset": 658464,
      "componentType": 5126,
      "count": 43760,
      "max": [
        1.0,
        1.0,
        0.9999930262565613,
        1.0
      ],
      "min": [
        -1.0,
        -1.0,
        -0.9999930262565613,
        1.0
      ],
      "type": "VEC4"
    },
    {
      "bufferView": 1,
      "byteOffset": 329232,
      "componentType": 5126,
      "count": 43760,
      "max": [
        0.9987865686416626,
        0.9984405040740967
      ],
      "min": [
        0.001207650639116764,
        0.0012085437774658203
      ],
      "type": "VEC2"
    },
    {
      "bufferView": 0,
      "byteOffset": 219288,
      "componentType": 5125,
      "count": 87732,
      "type": "SCALAR"
    },
    {
      "bufferView": 2,
      "byteOffset": 2037936,
      "componentType": 5126,
      "count": 65533,
      "max": [
        5.65095329284668,
        4.203127861022949,
        0.8722069263458252
      ],
      "min": [
        -3.6218271255493164,
        -2.978825092315674,
        -1.213892936706543
      ],
      "type": "VEC3"
    },
    {
      "bufferView": 2,
      "byteOffset": 2824332,
      "componentType": 5126,
      "count": 65533,
      "max": [
        1.0,
        0.9999993443489075,
        1.0
      ],
      "min": [
        -1.0,
        -0.9999993443489075,
        -1.0
      ],
      "type": "VEC3"
    },
    {
      "bufferView": 3,
      "byteOffset": 1358624,
      "componentType": 5126,
      "count": 65533,
      "max": [
        1.0,
        1.0,
        0.9999964833259583,
        1.0
      ],
      "min": [
        -1.0,
        -1.0,
        -1.0,
        1.0
      ],
      "type": "VEC4"
    },
    {
      "bufferView": 1,
      "byteOffset": 679312,
      "componentType": 5126,
      "count": 65533,
      "max": [
        0.99904465675354,
        0.9984237551689148
      ],
      "min": [
        0.001026663463562727,
        0.001031610299833119
      ],
      "type": "VEC2"
    },
    {
      "bufferView": 0,
      "byteOffset": 570216,
      "componentType": 5125,
      "count": 77469,
      "type": "SCALAR"
    },
    {
      "bufferView": 2,
      "byteOffset": 3610728,
      "componentType": 5126,
      "count": 38824,
      "max": [
        5.591870307922363,
        4.203127861022949,
        0.9356131553649902
      ],
      "min": [
        -3.6932220458984375,
        -2.978825092315674,
        -1.1999348402023315
      ],
      "type": "VEC3"
    },
    {
      "bufferView": 2,
      "byteOffset": 4076616,
      "componentType": 5126,
      "count": 38824,
      "max": [
        1.0,
        1.0,
        1.0
      ],
      "min": [
        -1.0,
        -1.0,
        -1.0
      ],
      "type": "VEC3"
    },
    {
      "bufferView": 3,
      "byteOffset": 2407152,
      "componentType": 5126,
      "count": 38824,
      "max": [
        1.0,
        1.0,
        1.0,
        1.0
      ],
      "min": [
        -1.0,
        -1.0,
        -1.0,
        -1.0
      ],
      "type": "VEC4"
    },
    {
      "bufferView": 1,
      "byteOffset": 1203576,
      "componentType": 5126,
      "count": 38824,
      "max": [
        0.9990551471710205,
        0.9984316229820251
      ],
      "min": [
        0.0010425320360809565,
        0.0010434952564537525
      ],
      "type": "VEC2"
    },
    {
      "bufferView": 0,
      "byteOffset": 880092,
      "componentType": 5125,
      "count": 41703,
      "type": "SCALAR"
    },
    {
      "bufferView": 2,
      "byteOffset": 4542504,
      "componentType": 5126,
      "count": 32693,
      "max": [
        8.53434944152832,
        3.2915313243865967,
        3.906247615814209
      ],
      "min": [
        -1.07374906539917,
        -1.6217939853668213,
        -1.1249463558197021
      ],
      "type": "VEC3"
    },
    {
      "bufferView": 2,
      "byteOffset": 4934820,
      "componentType": 5126,
      "count": 32693,
      "max": [
        1.0,
        1.0,
        1.0
      ],
      "min": [
        -1.0,
        -1.0,
        -1.0
      ],
      "type": "VEC3"
    },
    {
      "bufferView": 3,
      "byteOffset": 3028336,
      "componentType": 5126,
      "count": 32693,
      "max": [
        1.0,
        1.0,
        1.0,
        1.0
      ],
      "min": [
        -1.0,
        -1.0,
        -1.0,
        -1.0
      ],
      "type": "VEC4"
    },
    {
      "bufferView": 1,
      "byteOffset": 1514168,
      "componentType": 5126,
      "count": 32693,
      "max": [
        0.9989770650863647,
        0.9979739189147949
      ],
      "min": [
        0.001226872205734253,
        0.0012277285568416119
      ],
      "type": "VEC2"
    },
    {
      "bufferView": 0,
      "byteOffset": 1046904,
      "componentType": 5125,
      "count": 53790,
      "type": "SCALAR"
    }
  ],
  "asset": {
    "extras": {
      "author": "Freepoly.org (https://sketchfab.com/blackrray)",
      "license": "CC-BY-4.0 (http://creativecommons.org/licenses/by/4.0/)",
      "source": "https://sketchfab.com/3d-models/wood-plant-house-freepolyorg-0547e252f3bc4350befbe6ffc2a583b9",
      "title": "Wood Plant House-Freepoly.org"
    },
    "generator": "Sketchfab-15.55.0",
    "version": "2.0"
  },
  "bufferViews": [
    {
      "buffer": 0,
      "byteLength": 1262064,
      "name": "floatBufferViews",
      "target": 34963
    },
    {
      "buffer": 0,
      "byteLength": 1775712,
      "byteOffset": 1262064,
      "byteStride": 8,
      "name": "floatBufferViews",
      "target": 34962
    },
    {
      "buffer": 0,
      "byteLength": 5327136,
      "byteOffset": 3037776,
      "byteStride": 12,
      "name": "floatBufferViews",
      "target": 34962
    },
    {
      "buffer": 0,
      "byteLength": 3551424,
      "byteOffset": 8364912,
      "byteStride": 16,
      "name": "floatBufferViews",
      "target": 34962
    }
  ],
  "buffers": [
    {
      "byteLength": 11916336,
      "uri": "scene.bin"
    }
  ],
  "images": [
    {
      "uri": "textures/material_baseColor.jpeg"
    },
    {
      "uri": "textures/material_metallicRoughness.png"
    },
    {
      "uri": "textures/material_normal.png"
    },
    {
      "uri": "textures/material_1_baseColor.jpeg"
    },
    {
      "uri": "textures/material_1_metallicRoughness.png"
    },
    {
      "uri": "textures/material_1_normal.png"
    },
    {
      "uri": "textures/material_2_baseColor.jpeg"
    },
    {
      "uri": "textures/material_2_metallicRoughness.png"
    },
    {
      "uri": "textures/material_2_normal.png"
    },
    {
      "uri": "textures/material_3_baseColor.jpeg"
    },
    {
      "uri": "textures/material_3_metallicRoughness.png"
    },
    {
      "uri": "textures/material_3_normal.png"
    }
  ],
  "materials": [
    {
      "doubleSided": true,
      "name": "material",
      "normalTexture": {
        "index": 2
      },
      "pbrMetallicRoughness": {
        "baseColorTexture": {
          "index": 0
        },
        "metallicFactor": 0.0,
        "metallicRoughnessTexture": {
          "index": 1
        }
      }
    },
    {
      "doubleSided": true,
      "name": "material_1",
      "normalTexture": {
        "index": 5
      },
      "pbrMetallicRoughness": {
        "baseColorTexture": {
          "index": 3
        },
        "metallicFactor": 0.0,
        "metallicRoughnessTexture": {
          "index": 4
        }
      }
    },
    {
      "doubleSided": true,
      "name": "material_2",
      "normalTexture": {
        "index": 8
      },
      "pbrMetallicRoughness": {
        "baseColorTexture": {
          "index": 6
        },
        "metallicFactor": 0.0,
        "metallicRoughnessTexture": {
          "index": 7
        }
      }
    },
    {
      "doubleSided": true,
      "name": "material_3",
      "normalTexture": {
        "index": 11
      },
      "pbrMetallicRoughness": {
        "baseColorTexture": {
          "index": 9
        },
        "metallicFactor": 0.0,
        "metallicRoughnessTexture": {
          "index": 10
        }
      }
    }
  ],
  "meshes": [
    {
      "name": "1_1_0",
      "primitives": [
        {
          "attributes": {
            "NORMAL": 1,
            "POSITION": 0,
            "TANGENT": 2,
            "TEXCOORD_0": 3
          },
          "indices": 4,
          "material": 0,
          "mode": 4
        }
      ]
    },
    {
      "name": "2_2_0",
      "primitives": [
        {
          "attributes": {
            "NORMAL": 6,
            "POSITION": 5,
            "TANGENT": 7,
            "TEXCOORD_0": 8
          },
          "indices": 9,
          "material": 1,
          "mode": 4
        }
      ]
    },
    {
      "name": "4_4_0",
      "primitives": [
        {
          "attributes": {
            "NORMAL": 11,
            "POSITION": 10,
            "TANGENT": 12,
            "TEXCOORD_0": 13
          },
          "indices": 14,
          "material": 2,
          "mode": 4
        }
      ]
    },
    {
      "name": "4_4_0",
      "primitives": [
        {
          "attributes": {
            "NORMAL": 16,
            "POSITION": 15,
            "TANGENT": 17,
            "TEXCOORD_0": 18
          },
          "indices": 19,
          "material": 2,
          "mode": 4
        }
      ]
    },
    {
      "name": "3_3_0",
      "primitives": [
        {
          "attributes": {
            "NORMAL": 21,
            "POSITION": 20,
            "TANGENT": 22,
            "TEXCOORD_0": 23
          },
          "indices": 24,
          "material": 3,
          "mode": 4
        }
      ]
    }
  ],
  "nodes": [
    {
      "children": [
        1
      ],
      "matrix": [
        0.7596688866615295,
        0.0,
        0.0,
        0.0,
        0.0,
        1.6868037781259771e-16,
        -0.7596688866615295,
        0.0,
        0.0,
        0.7596688866615295,
        1.6868037781259771e-16,
        0.0,
        0.0,
        0.0,
        0.0,
        1.0
      ],
      "name": "Sketchfab_model"
    },
    {
      "children": [
        2
      ],
      "matrix": [
        0.009999999776482582,
        0.0,
        0.0,
        0.0,
        0.0,
        0.0,
        0.009999999776482582,
        0.0,
        0.0,
        -0.009999999776482582,
        0.0,
        0.0,
        0.0,
        0.0,
        0.0,
        1.0
      ],
      "name": "mutou.fbx"
    },
    {
      "children": [
        3,
        5,
        7,
        10
      ],
      "name": "RootNode"
    },
    {
      "children": [
        4
      ],
      "matrix": [
        100.0,
        0.0,
        0.0,
        0.0,
        0.0,
        -1.629206793918314e-05,
        -99.99999999999868,
        0.0,
        0.0,
        99.99999999999868,
        -1.629206793918314e-05,
        0.0,
        30.947994232177734,
        675.5443725585938,
        195.44735717773438,
        1.0
      ],
      "name": "1"
    },
    {
      "mesh": 0,
      "name": "1_1_0"
    },
    {
      "children": [
        6
      ],
      "matrix": [
        100.0,
        0.0,
        0.0,
        0.0,
        0.0,
        -1.629206793918314e-05,
        -99.99999999999868,
        0.0,
        0.0,
        99.99999999999868,
        -1.629206793918314e-05,
        0.0,
        30.947954177856445,
        703.947998046875,
        135.38153076171875,
        1.0
      ],
      "name": "2"
    },
    {
      "mesh": 1,
      "name": "2_2_0"
    },
    {
      "children": [
        8,
        9
      ],
      "matrix": [
        100.0,
        0.0,
        0.0,
        0.0,
        -0.0,
        -1.629206793918314e-05,
        -99.99999999999868,
        0.0,
        0.0,
        99.99999999999868,
        -1.629206793918314e-05,
        0.0,
        -212.9485321044922,
        74.16083526611328,
        229.3668212890625,
        1.0
      ],
      "name": "4"
    },
    {
      "mesh": 2,
      "name": "4_4_0"
    },
    {
      "mesh": 3,
      "name": "4_4_0"
    },
    {
      "children": [
        11
      ],
      "matrix": [
        100.0,
        0.0,
        0.0,
        0.0,
        -0.0,
        -1.629206793918314e-05,
        -99.99999999999868,
        0.0,
        0.0,
        99.99999999999868,
        -1.629206793918314e-05,
        0.0,
        -514.4464111328125,
        269.30023193359375,
        137.18104553222656,
        1.0
      ],
      "name": "3"
    },
    {
      "mesh": 4,
      "name": "3_3_0"
    }
  ],
  "samplers": [
    {
      "magFilter": 9729,
      "minFilter": 9987,
      "wrapS": 10497,
      "wrapT": 10497
    }
  ],
  "scene": 0,
  "scenes": [
    {
      "name": "Sketchfab_Scene",
      "nodes": [
        0
      ]
    }
  ],
  "textures": [
    {
      "sampler": 0,
      "source": 0
    },
    {
      "sampler": 0,
      "source": 1
    },
    {
      "sampler": 0,
      "source": 2
    },
    {
      "sampler": 0,
      "source": 3
    },
    {
      "sampler": 0,
      "source": 4
    },
    {
      "sampler": 0,
      "source": 5
    },
    {
      "sampler": 0,
      "source": 6
    },
    {
      "sampler": 0,
      "source": 7
    },
    {
      "sampler": 0,
      "source": 8
    },
    {
      "sampler": 0,
      "source": 9
    },
    {
      "sampler": 0,
      "source": 10
    },
    {
      "sampler": 0,
      "source": 11
    }
  ]
}
