{
  "accessors": [
    {
      "bufferView": 2,
      "componentType": 5126,
      "count": 37049,
      "max": [
        7.4040021896362305,
        -0.22002699971199036,
        6.775415897369385
      ],
      "min": [
        -6.237919807434082,
        -20.916528701782227,
        -9.851752281188965
      ],
      "type": "VEC3"
    },
    {
      "bufferView": 2,
      "byteOffset": 444588,
      "componentType": 5126,
      "count": 37049,
      "max": [
        0.9999889731407166,
        0.9999236464500427,
        0.9999828934669495
      ],
      "min": [
        -0.9999924898147583,
        -1.0,
        -0.9999913573265076
      ],
      "type": "VEC3"
    },
    {
      "bufferView": 1,
      "componentType": 5126,
      "count": 37049,
      "max": [
        0.9992679953575134,
        0.9992660284042358
      ],
      "min": [
        0.0007319999858736992,
        0.0007340000011026859
      ],
      "type": "VEC2"
    },
    {
      "bufferView": 0,
      "componentType": 5125,
      "count": 193317,
      "type": "SCALAR"
    }
  ],
  "asset": {
    "extras": {
      "author": "Carriage Way Cemetery (https://sketchfab.com/knowmatt)",
      "license": "CC-BY-4.0 (http://creativecommons.org/licenses/by/4.0/)",
      "source": "https://sketchfab.com/3d-models/reachy-stone-baby-series-4496e5c80ea64df2a3bb75fa020e9d42",
      "title": "Reachy-Stone Baby Series"
    },
    "generator": "Sketchfab-12.68.0",
    "version": "2.0"
  },
  "bufferViews": [
    {
      "buffer": 0,
      "byteLength": 773268,
      "name": "floatBufferViews",
      "target": 34963
    },
    {
      "buffer": 0,
      "byteLength": 296392,
      "byteOffset": 773268,
      "byteStride": 8,
      "name": "floatBufferViews",
      "target": 34962
    },
    {
      "buffer": 0,
      "byteLength": 889176,
      "byteOffset": 1069660,
      "byteStride": 12,
      "name": "floatBufferViews",
      "target": 34962
    }
  ],
  "buffers": [
    {
      "byteLength": 1958836,
      "uri": "scene.bin"
    }
  ],
  "extensionsUsed": [
    "KHR_materials_unlit"
  ],
  "images": [
    {
      "uri": "textures/Material_0_baseColor.jpeg"
    }
  ],
  "materials": [
    {
      "doubleSided": true,
      "extensions": {
        "KHR_materials_unlit": {}
      },
      "name": "Material_0",
      "pbrMetallicRoughness": {
        "baseColorTexture": {
          "index": 0
        },
        "metallicFactor": 0.0
      }
    }
  ],
  "meshes": [
    {
      "name": "Object_0",
      "primitives": [
        {
          "attributes": {
            "NORMAL": 1,
            "POSITION": 0,
            "TEXCOORD_0": 2
          },
          "indices": 3,
          "material": 0,
          "mode": 4
        }
      ]
    }
  ],
  "nodes": [
    {
      "children": [
        1
      ],
      "matrix": [
        2.0071034905836012e-05,
        0.0006745923861291711,
        0.06642921086155162,
        0.0,
        -0.001975583105154277,
        -0.06639982993276838,
        0.0006748908480573431,
        0.0,
        0.06640325506799716,
        -0.001975685067272359,
        1.8000071406358958e-17,
        0.0,
        1.8060747385025024,
        -12.152873039245607,
        10.092609405517575,
        1.0
      ],
      "name": "Sketchfab_model"
    },
    {
      "children": [
        2
      ],
      "name": "5ecefc61daa2563d5cf6d5ce.obj.cleaner.materialmerger.gles"
    },
    {
      "mesh": 0,
      "name": "Object_2"
    }
  ],
  "samplers": [
    {
      "magFilter": 9729,
      "minFilter": 9987,
      "wrapS": 10497,
      "wrapT": 10497
    }
  ],
  "scene": 0,
  "scenes": [
    {
      "name": "Sketchfab_Scene",
      "nodes": [
        0
      ]
    }
  ],
  "textures": [
    {
      "sampler": 0,
      "source": 0
    }
  ]
}
