{
  "accessors": [
    {
      "bufferView": 2,
      "componentType": 5126,
      "count": 15463,
      "max": [
        9.727778434753418,
        10.069717407226563,
        13.579209327697754
      ],
      "min": [
        -9.727778434753418,
        -10.069716453552246,
        -13.579209327697754
      ],
      "type": "VEC3"
    },
    {
      "bufferView": 2,
      "byteOffset": 185556,
      "componentType": 5126,
      "count": 15463,
      "max": [
        0.9999821186065674,
        0.9999957084655762,
        0.9999469518661499
      ],
      "min": [
        -0.999986469745636,
        -0.9996882081031799,
        -0.9999788999557495
      ],
      "type": "VEC3"
    },
    {
      "bufferView": 3,
      "componentType": 5126,
      "count": 15463,
      "max": [
        0.9997457265853882,
        0.9999935030937195,
        0.965100109577179,
        1.0
      ],
      "min": [
        -0.9977169632911682,
        -0.9999969005584717,
        -0.999759316444397,
        1.0
      ],
      "type": "VEC4"
    },
    {
      "bufferView": 1,
      "componentType": 5126,
      "count": 15463,
      "max": [
        0.9902923107147217,
        0.9979999661445618
      ],
      "min": [
        0.0020000000949949026,
        0.0020000000949949026
      ],
      "type": "VEC2"
    },
    {
      "bufferView": 0,
      "componentType": 5125,
      "count": 90006,
      "type": "SCALAR"
    }
  ],
  "asset": {
    "extras": {
      "author": "3dhdscan (https://sketchfab.com/3dhdscan)",
      "license": "CC-BY-4.0 (http://creativecommons.org/licenses/by/4.0/)",
      "source": "https://sketchfab.com/3d-models/stone-black-3-8a08e2306d4341998760a80bde04a099",
      "title": "Stone black 3"
    },
    "generator": "Sketchfab-12.67.0",
    "version": "2.0"
  },
  "bufferViews": [
    {
      "buffer": 0,
      "byteLength": 360024,
      "name": "floatBufferViews",
      "target": 34963
    },
    {
      "buffer": 0,
      "byteLength": 123704,
      "byteOffset": 360024,
      "byteStride": 8,
      "name": "floatBufferViews",
      "target": 34962
    },
    {
      "buffer": 0,
      "byteLength": 371112,
      "byteOffset": 483728,
      "byteStride": 12,
      "name": "floatBufferViews",
      "target": 34962
    },
    {
      "buffer": 0,
      "byteLength": 247408,
      "byteOffset": 854840,
      "byteStride": 16,
      "name": "floatBufferViews",
      "target": 34962
    }
  ],
  "buffers": [
    {
      "byteLength": 1102248,
      "uri": "scene.bin"
    }
  ],
  "images": [
    {
      "uri": "textures/sutr16_baseColor.jpeg"
    },
    {
      "uri": "textures/sutr16_metallicRoughness.png"
    },
    {
      "uri": "textures/sutr16_normal.jpeg"
    }
  ],
  "materials": [
    {
      "doubleSided": true,
      "name": "sutr16",
      "normalTexture": {
        "index": 2
      },
      "occlusionTexture": {
        "index": 1
      },
      "pbrMetallicRoughness": {
        "baseColorTexture": {
          "index": 0
        },
        "metallicFactor": 0.0,
        "metallicRoughnessTexture": {
          "index": 1
        },
        "roughnessFactor": 0.6995045731707317
      }
    }
  ],
  "meshes": [
    {
      "name": "sutr16_sutr16_0",
      "primitives": [
        {
          "attributes": {
            "NORMAL": 1,
            "POSITION": 0,
            "TANGENT": 2,
            "TEXCOORD_0": 3
          },
          "indices": 4,
          "material": 0,
          "mode": 4
        }
      ]
    }
  ],
  "nodes": [
    {
      "children": [
        1
      ],
      "matrix": [
        0.0007027710666210468,
        0.005078645803178017,
        1.127685900920831e-18,
        0.0,
        8.167085382994891e-19,
        1.0254172019309198e-18,
        -0.005127039272338152,
        0.0,
        -0.005078645803178017,
        0.0007027710666210468,
        -6.684442604233584e-19,
        0.0,
        -0.6602992415428162,
        -1.2833858728408813,
        -2.8496890910131997e-16,
        1.0
      ],
      "name": "Sketchfab_model"
    },
    {
      "children": [
        2
      ],
      "matrix": [
        1.0,
        0.0,
        0.0,
        0.0,
        0.0,
        -1.0,
        0.0,
        0.0,
        0.0,
        0.0,
        -1.0,
        0.0,
        0.0,
        0.0,
        0.0,
        1.0
      ],
      "name": "sutr16.FBX"
    },
    {
      "children": [
        3
      ],
      "name": "RootNode"
    },
    {
      "children": [
        4
      ],
      "matrix": [
        1.0,
        0.0,
        0.0,
        0.0,
        0.0,
        1.0,
        0.0,
        0.0,
        0.0,
        0.0,
        1.0,
        0.0,
        0.4064598083496094,
        -9.773241996765137,
        1.0206880569458008,
        1.0
      ],
      "name": "sutr16"
    },
    {
      "mesh": 0,
      "name": "sutr16_sutr16_0"
    }
  ],
  "samplers": [
    {
      "magFilter": 9729,
      "minFilter": 9987,
      "wrapS": 10497,
      "wrapT": 10497
    }
  ],
  "scene": 0,
  "scenes": [
    {
      "name": "Sketchfab_Scene",
      "nodes": [
        0
      ]
    }
  ],
  "textures": [
    {
      "sampler": 0,
      "source": 0
    },
    {
      "sampler": 0,
      "source": 1
    },
    {
      "sampler": 0,
      "source": 2
    }
  ]
}
