{
  "accessors": [
    {
      "bufferView": 2,
      "componentType": 5126,
      "count": 41455,
      "max": [
        0.7229750156402588,
        3.8608410358428955,
        0.8300619721412659
      ],
      "min": [
        -1.1777689456939697,
        3.6649179458618164,
        -0.353177011013031
      ],
      "type": "VEC3"
    },
    {
      "bufferView": 2,
      "byteOffset": 497460,
      "componentType": 5126,
      "count": 41455,
      "max": [
        0.9999904632568359,
        0.9999998211860657,
        0.9996117353439331
      ],
      "min": [
        -0.9999985098838806,
        -0.9999998211860657,
        -0.9999364018440247
      ],
      "type": "VEC3"
    },
    {
      "bufferView": 1,
      "componentType": 5126,
      "count": 41455,
      "max": [
        0.9996690154075623,
        1.0001649856567383
      ],
      "min": [
        0.0032289999071508646,
        0.002644999884068966
      ],
      "type": "VEC2"
    },
    {
      "bufferView": 0,
      "componentType": 5125,
      "count": 221952,
      "type": "SCALAR"
    },
    {
      "bufferView": 2,
      "byteOffset": 994920,
      "componentType": 5126,
      "count": 47080,
      "max": [
        0.7228649854660034,
        3.8976480960845947,
        0.8233820199966431
      ],
      "min": [
        -0.4972659945487976,
        3.6822009086608887,
        -0.3543030023574829
      ],
      "type": "VEC3"
    },
    {
      "bufferView": 2,
      "byteOffset": 1559880,
      "componentType": 5126,
      "count": 47080,
      "max": [
        0.9999907612800598,
        0.9999988675117493,
        0.9998824596405029
      ],
      "min": [
        -0.9999817609786987,
        -0.9999997019767761,
        -0.9999825954437256
      ],
      "type": "VEC3"
    },
    {
      "bufferView": 1,
      "byteOffset": 331640,
      "componentType": 5126,
      "count": 47080,
      "max": [
        0.9951900243759155,
        0.9999269843101501
      ],
      "min": [
        0.0015480000292882323,
        0.003091000020503998
      ],
      "type": "VEC2"
    },
    {
      "bufferView": 0,
      "byteOffset": 887808,
      "componentType": 5125,
      "count": 183438,
      "type": "SCALAR"
    }
  ],
  "asset": {
    "extras": {
      "author": "Santa Cruz Museum of Art and History (https://sketchfab.com/santacruzmah)",
      "license": "CC-BY-4.0 (http://creativecommons.org/licenses/by/4.0/)",
      "source": "https://sketchfab.com/3d-models/mary-albert-and-rholandus-jones-tombstones-f6235ea6674642ce9ec1b29679f98d5c",
      "title": "Mary, Albert, and Rholandus Jones Tombstones"
    },
    "generator": "Sketchfab-12.65.0",
    "version": "2.0"
  },
  "bufferViews": [
    {
      "buffer": 0,
      "byteLength": 1621560,
      "name": "floatBufferViews",
      "target": 34963
    },
    {
      "buffer": 0,
      "byteLength": 708280,
      "byteOffset": 1621560,
      "byteStride": 8,
      "name": "floatBufferViews",
      "target": 34962
    },
    {
      "buffer": 0,
      "byteLength": 2124840,
      "byteOffset": 2329840,
      "byteStride": 12,
      "name": "floatBufferViews",
      "target": 34962
    }
  ],
  "buffers": [
    {
      "byteLength": 4454680,
      "uri": "scene.bin"
    }
  ],
  "extensionsUsed": [
    "KHR_materials_unlit"
  ],
  "images": [
    {
      "uri": "textures/material_0_baseColor.jpeg"
    },
    {
      "uri": "textures/material_1_baseColor.jpeg"
    }
  ],
  "materials": [
    {
      "doubleSided": true,
      "extensions": {
        "KHR_materials_unlit": {}
      },
      "name": "material_0",
      "pbrMetallicRoughness": {
        "baseColorTexture": {
          "index": 0
        },
        "metallicFactor": 0.0
      }
    },
    {
      "doubleSided": true,
      "extensions": {
        "KHR_materials_unlit": {}
      },
      "name": "material_1",
      "pbrMetallicRoughness": {
        "baseColorTexture": {
          "index": 1
        },
        "metallicFactor": 0.0
      }
    }
  ],
  "meshes": [
    {
      "name": "Object_0",
      "primitives": [
        {
          "attributes": {
            "NORMAL": 1,
            "POSITION": 0,
            "TEXCOORD_0": 2
          },
          "indices": 3,
          "material": 0,
          "mode": 4
        }
      ]
    },
    {
      "name": "Object_1",
      "primitives": [
        {
          "attributes": {
            "NORMAL": 5,
            "POSITION": 4,
            "TEXCOORD_0": 6
          },
          "indices": 7,
          "material": 1,
          "mode": 4
        }
      ]
    }
  ],
  "nodes": [
    {
      "children": [
        1
      ],
      "matrix": [
        1.0,
        0.0,
        0.0,
        0.0,
        0.0,
        2.220446049250313e-16,
        -1.0,
        0.0,
        0.0,
        1.0,
        2.220446049250313e-16,
        0.0,
        0.0,
        0.0,
        0.0,
        1.0
      ],
      "name": "Sketchfab_model"
    },
    {
      "children": [
        2,
        3
      ],
      "name": "model.obj.cleaner"
    },
    {
      "mesh": 0,
      "name": "Object_2"
    },
    {
      "mesh": 1,
      "name": "Object_3"
    }
  ],
  "samplers": [
    {
      "magFilter": 9729,
      "minFilter": 9987,
      "wrapS": 10497,
      "wrapT": 10497
    }
  ],
  "scene": 0,
  "scenes": [
    {
      "name": "Sketchfab_Scene",
      "nodes": [
        0
      ]
    }
  ],
  "textures": [
    {
      "sampler": 0,
      "source": 0
    },
    {
      "sampler": 0,
      "source": 1
    }
  ]
}
