{
  "accessors": [
    {
      "bufferView": 2,
      "componentType": 5126,
      "count": 65532,
      "max": [
        0.0,
        -0.0,
        1818.8499755859375
      ],
      "min": [
        -4088.0,
        -4088.0,
        26.456819534301758
      ],
      "type": "VEC3"
    },
    {
      "bufferView": 2,
      "byteOffset": 786384,
      "componentType": 5126,
      "count": 65532,
      "max": [
        0.9687838554382324,
        0.9794087409973145,
        1.0
      ],
      "min": [
        -0.9946817755699158,
        -0.9942998290061951,
        0.07258906215429306
      ],
      "type": "VEC3"
    },
    {
      "bufferView": 3,
      "componentType": 5126,
      "count": 65532,
      "max": [
        1.4051850484975148e-05,
        -0.10639741271734238,
        0.9847796559333801,
        -1.0
      ],
      "min": [
        -1.2461293408705387e-05,
        -1.0,
        -0.9943236708641052,
        -1.0
      ],
      "type": "VEC4"
    },
    {
      "bufferView": 1,
      "componentType": 5126,
      "count": 65532,
      "max": [
        1.0,
        1.0
      ],
      "min": [
        0.0,
        0.0
      ],
      "type": "VEC2"
    },
    {
      "bufferView": 0,
      "componentType": 5125,
      "count": 317853,
      "type": "SCALAR"
    },
    {
      "bufferView": 2,
      "byteOffset": 1572768,
      "componentType": 5126,
      "count": 65532,
      "max": [
        -72.0,
        -0.0,
        656.1362915039063
      ],
      "min": [
        -4088.0,
        -3840.0,
        24.806299209594727
      ],
      "type": "VEC3"
    },
    {
      "bufferView": 2,
      "byteOffset": 2359152,
      "componentType": 5126,
      "count": 65532,
      "max": [
        0.9656863212585449,
        0.9701465964317322,
        1.0
      ],
      "min": [
        -0.955520749092102,
        -0.9724593162536621,
        0.20625068247318268
      ],
      "type": "VEC3"
    },
    {
      "bufferView": 3,
      "byteOffset": 1048512,
      "componentType": 5126,
      "count": 65532,
      "max": [
        1.3195317478675861e-05,
        -0.22885939478874207,
        0.9722778797149658,
        -1.0
      ],
      "min": [
        -1.27833036458469e-05,
        -1.0,
        -0.9734594821929932,
        -1.0
      ],
      "type": "VEC4"
    },
    {
      "bufferView": 1,
      "byteOffset": 524256,
      "componentType": 5126,
      "count": 65532,
      "max": [
        0.9393345713615417,
        1.0
      ],
      "min": [
        0.0,
        0.0176125206053257
      ],
      "type": "VEC2"
    },
    {
      "bufferView": 0,
      "byteOffset": 1271412,
      "componentType": 5125,
      "count": 346803,
      "type": "SCALAR"
    },
    {
      "bufferView": 2,
      "byteOffset": 3145536,
      "componentType": 5126,
      "count": 65532,
      "max": [
        -680.0,
        -552.0,
        749.6616821289063
      ],
      "min": [
        -4088.0,
        -3088.0,
        36.09300994873047
      ],
      "type": "VEC3"
    },
    {
      "bufferView": 2,
      "byteOffset": 3931920,
      "componentType": 5126,
      "count": 65532,
      "max": [
        0.9406849145889282,
        0.9764240384101868,
        1.0
      ],
      "min": [
        -0.9417023062705994,
        -0.9425108432769775,
        0.19798189401626587
      ],
      "type": "VEC3"
    },
    {
      "bufferView": 3,
      "byteOffset": 2097024,
      "componentType": 5126,
      "count": 65532,
      "max": [
        1.2957067156094126e-05,
        -0.20070332288742065,
        0.9796521663665771,
        -1.0
      ],
      "min": [
        -1.075816271622898e-05,
        -1.0,
        -0.9452431797981262,
        -1.0
      ],
      "type": "VEC4"
    },
    {
      "bufferView": 1,
      "byteOffset": 1048512,
      "componentType": 5126,
      "count": 65532,
      "max": [
        0.7553815841674805,
        1.0
      ],
      "min": [
        0.13502930104732513,
        0.16634050011634827
      ],
      "type": "VEC2"
    },
    {
      "bufferView": 0,
      "byteOffset": 2658624,
      "componentType": 5125,
      "count": 376293,
      "type": "SCALAR"
    },
    {
      "bufferView": 2,
      "byteOffset": 4718304,
      "componentType": 5126,
      "count": 65532,
      "max": [
        0.0,
        -72.0,
        1467.2149658203125
      ],
      "min": [
        -3872.0,
        -4088.0,
        43.84368133544922
      ],
      "type": "VEC3"
    },
    {
      "bufferView": 2,
      "byteOffset": 5504688,
      "componentType": 5126,
      "count": 65532,
      "max": [
        0.9683799147605896,
        0.9853848814964294,
        0.9999994039535522
      ],
      "min": [
        -0.9741812944412231,
        -0.9920186996459961,
        0.09123515337705612
      ],
      "type": "VEC3"
    },
    {
      "bufferView": 3,
      "byteOffset": 3145536,
      "componentType": 5126,
      "count": 65532,
      "max": [
        1.5153222193475813e-05,
        -0.0997120663523674,
        0.9857658743858337,
        -1.0
      ],
      "min": [
        -1.485628126829397e-05,
        -1.0,
        -0.99501633644104,
        -1.0
      ],
      "type": "VEC4"
    },
    {
      "bufferView": 1,
      "byteOffset": 1572768,
      "componentType": 5126,
      "count": 65532,
      "max": [
        1.0,
        0.947162389755249
      ],
      "min": [
        0.0176125206053257,
        0.0
      ],
      "type": "VEC2"
    },
    {
      "bufferView": 0,
      "byteOffset": 4163796,
      "componentType": 5125,
      "count": 322164,
      "type": "SCALAR"
    },
    {
      "bufferView": 2,
      "byteOffset": 6291072,
      "componentType": 5126,
      "count": 53223,
      "max": [
        0.0,
        -0.0,
        1818.8499755859375
      ],
      "min": [
        -4072.0,
        -4088.0,
        45.38877868652344
      ],
      "type": "VEC3"
    },
    {
      "bufferView": 2,
      "byteOffset": 6929748,
      "componentType": 5126,
      "count": 53223,
      "max": [
        0.9667824506759644,
        0.9916186332702637,
        0.9999999403953552
      ],
      "min": [
        -0.9938420653343201,
        -0.980387270450592,
        0.09065800905227661
      ],
      "type": "VEC3"
    },
    {
      "bufferView": 3,
      "byteOffset": 4194048,
      "componentType": 5126,
      "count": 53223,
      "max": [
        1.6198613593587652e-05,
        -0.09911608695983887,
        0.9950759410858154,
        -1.0
      ],
      "min": [
        -1.630956649023574e-05,
        -1.0,
        -0.9913963079452515,
        -1.0
      ],
      "type": "VEC4"
    },
    {
      "bufferView": 1,
      "byteOffset": 2097024,
      "componentType": 5126,
      "count": 53223,
      "max": [
        1.0,
        0.9960861206054688
      ],
      "min": [
        0.0,
        0.0
      ],
      "type": "VEC2"
    },
    {
      "bufferView": 0,
      "byteOffset": 5452452,
      "componentType": 5125,
      "count": 203613,
      "type": "SCALAR"
    }
  ],
  "asset": {
    "extras": {
      "author": "josevega (https://sketchfab.com/josevega)",
      "license": "CC-BY-4.0 (http://creativecommons.org/licenses/by/4.0/)",
      "source": "https://sketchfab.com/3d-models/free-dry-rock-sand-terrain-d8c7c59079c649bfb96ab31afa919378",
      "title": "FREE - Dry rock sand terrain"
    },
    "generator": "Sketchfab-12.65.0",
    "version": "2.0"
  },
  "bufferViews": [
    {
      "buffer": 0,
      "byteLength": 6266904,
      "name": "floatBufferViews",
      "target": 34963
    },
    {
      "buffer": 0,
      "byteLength": 2522808,
      "byteOffset": 6266904,
      "byteStride": 8,
      "name": "floatBufferViews",
      "target": 34962
    },
    {
      "buffer": 0,
      "byteLength": 7568424,
      "byteOffset": 8789712,
      "byteStride": 12,
      "name": "floatBufferViews",
      "target": 34962
    },
    {
      "buffer": 0,
      "byteLength": 5045616,
      "byteOffset": 16358136,
      "byteStride": 16,
      "name": "floatBufferViews",
      "target": 34962
    }
  ],
  "buffers": [
    {
      "byteLength": 21403752,
      "uri": "scene.bin"
    }
  ],
  "extensionsRequired": [
    "KHR_materials_pbrSpecularGlossiness"
  ],
  "extensionsUsed": [
    "KHR_materials_pbrSpecularGlossiness"
  ],
  "images": [
    {
      "uri": "textures/material_0_diffuse.png"
    },
    {
      "uri": "textures/material_0_normal.png"
    }
  ],
  "materials": [
    {
      "doubleSided": true,
      "extensions": {
        "KHR_materials_pbrSpecularGlossiness": {
          "diffuseFactor": [
            1.0,
            1.0,
            1.0,
            1.0
          ],
          "diffuseTexture": {
            "index": 0
          },
          "glossinessFactor": 0.4,
          "specularFactor": [
            0.0,
            0.0,
            0.0
          ]
        }
      },
      "name": "material_0",
      "normalTexture": {
        "index": 1
      }
    }
  ],
  "meshes": [
    {
      "name": "Object_0",
      "primitives": [
        {
          "attributes": {
            "NORMAL": 1,
            "POSITION": 0,
            "TANGENT": 2,
            "TEXCOORD_0": 3
          },
          "indices": 4,
          "material": 0,
          "mode": 4
        }
      ]
    },
    {
      "name": "Object_1",
      "primitives": [
        {
          "attributes": {
            "NORMAL": 6,
            "POSITION": 5,
            "TANGENT": 7,
            "TEXCOORD_0": 8
          },
          "indices": 9,
          "material": 0,
          "mode": 4
        }
      ]
    },
    {
      "name": "Object_2",
      "primitives": [
        {
          "attributes": {
            "NORMAL": 11,
            "POSITION": 10,
            "TANGENT": 12,
            "TEXCOORD_0": 13
          },
          "indices": 14,
          "material": 0,
          "mode": 4
        }
      ]
    },
    {
      "name": "Object_3",
      "primitives": [
        {
          "attributes": {
            "NORMAL": 16,
            "POSITION": 15,
            "TANGENT": 17,
            "TEXCOORD_0": 18
          },
          "indices": 19,
          "material": 0,
          "mode": 4
        }
      ]
    },
    {
      "name": "Object_4",
      "primitives": [
        {
          "attributes": {
            "NORMAL": 21,
            "POSITION": 20,
            "TANGENT": 22,
            "TEXCOORD_0": 23
          },
          "indices": 24,
          "material": 0,
          "mode": 4
        }
      ]
    }
  ],
  "nodes": [
    {
      "children": [
        1
      ],
      "matrix": [
        1.0,
        0.0,
        0.0,
        0.0,
        0.0,
        2.220446049250313e-16,
        -1.0,
        0.0,
        0.0,
        1.0,
        2.220446049250313e-16,
        0.0,
        0.0,
        0.0,
        0.0,
        1.0
      ],
      "name": "Sketchfab_model"
    },
    {
      "children": [
        2,
        3,
        4,
        5,
        6
      ],
      "name": "heightmap-lowres.obj.cleaner.materialmerger.gles"
    },
    {
      "mesh": 0,
      "name": "Object_2"
    },
    {
      "mesh": 1,
      "name": "Object_3"
    },
    {
      "mesh": 2,
      "name": "Object_4"
    },
    {
      "mesh": 3,
      "name": "Object_5"
    },
    {
      "mesh": 4,
      "name": "Object_6"
    }
  ],
  "samplers": [
    {
      "magFilter": 9729,
      "minFilter": 9987,
      "wrapS": 10497,
      "wrapT": 10497
    }
  ],
  "scene": 0,
  "scenes": [
    {
      "name": "Sketchfab_Scene",
      "nodes": [
        0
      ]
    }
  ],
  "textures": [
    {
      "sampler": 0,
      "source": 0
    },
    {
      "sampler": 0,
      "source": 1
    }
  ]
}
