{
	"asset":{
		"generator":"Khronos glTF Blender I/O v4.0.44",
		"version":"2.0"
	},
	"extensionsUsed":[
		"KHR_materials_specular"
	],
	"scene":0,
	"scenes":[
		{
			"name":"Scene",
			"nodes":[
				4
			]
		}
	],
	"nodes":[
		{
			"mesh":0,
			"name":"Fence_Column2.002_Material_0"
		},
		{
			"children":[
				0
			],
			"name":"Fence_Column2.002",
			"rotation":[
				-0.70710688829422,
				0,
				0,
				0.7071066498756409
			],
			"scale":[
				18,
				17.99999237060547,
				17.99999237060547
			],
			"translation":[
				-0.0740661546587944,
				-5.669249367201701e-05,
				1.145751714706421
			]
		},
		{
			"children":[
				1
			],
			"name":"RootNode"
		},
		{
			"children":[
				2
			],
			"name":"W_D.fbx",
			"rotation":[
				0.70710688829422,
				0,
				0,
				0.7071066498756409
			],
			"scale":[
				0.009999999776482582,
				0.009999999776482582,
				0.009999999776482582
			]
		},
		{
			"children":[
				3
			],
			"name":"Sketchfab_model",
			"rotation":[
				-0.70710688829422,
				0,
				0,
				0.7071066498756409
			]
		}
	],
	"materials":[
		{
			"doubleSided":true,
			"extensions":{
				"KHR_materials_specular":{
					"specularTexture":{
						"index":0
					}
				}
			},
			"name":"Material.006",
			"normalTexture":{
				"index":1
			},
			"pbrMetallicRoughness":{
				"baseColorTexture":{
					"index":2
				},
				"metallicRoughnessTexture":{
					"index":3
				}
			}
		}
	],
	"meshes":[
		{
			"name":"Fence_Column2.002_Material_0.005",
			"primitives":[
				{
					"attributes":{
						"POSITION":0,
						"NORMAL":1,
						"TEXCOORD_0":2,
						"TEXCOORD_1":3,
						"TEXCOORD_2":4,
						"TEXCOORD_3":5,
						"TEXCOORD_4":6,
						"TEXCOORD_5":7,
						"TEXCOORD_6":8,
						"TEXCOORD_7":9
					},
					"indices":10,
					"material":0
				}
			]
		}
	],
	"textures":[
		{
			"sampler":0,
			"source":0
		},
		{
			"sampler":0,
			"source":1
		},
		{
			"sampler":0,
			"source":2
		},
		{
			"sampler":0,
			"source":3
		}
	],
	"images":[
		{
			"mimeType":"image/png",
			"name":"Material_specularf0",
			"uri":"textures/Material_specularf0.png"
		},
		{
			"mimeType":"image/png",
			"name":"Material_normal",
			"uri":"textures/Material_normal.png"
		},
		{
			"mimeType":"image/png",
			"name":"Material_baseColor",
			"uri":"textures/Material_baseColor.png"
		},
		{
			"mimeType":"image/png",
			"name":"Material_metallicRoughness",
			"uri":"textures/Material_metallicRoughness.png"
		}
	],
	"accessors":[
		{
			"bufferView":0,
			"componentType":5126,
			"count":168,
			"max":[
				3.28743314743042,
				3.2874393463134766,
				14.397083282470703
			],
			"min":[
				-3.28743314743042,
				-3.2874279022216797,
				0
			],
			"type":"VEC3"
		},
		{
			"bufferView":1,
			"componentType":5126,
			"count":168,
			"type":"VEC3"
		},
		{
			"bufferView":2,
			"componentType":5126,
			"count":168,
			"type":"VEC2"
		},
		{
			"bufferView":3,
			"componentType":5126,
			"count":168,
			"type":"VEC2"
		},
		{
			"bufferView":4,
			"componentType":5126,
			"count":168,
			"type":"VEC2"
		},
		{
			"bufferView":5,
			"componentType":5126,
			"count":168,
			"type":"VEC2"
		},
		{
			"bufferView":6,
			"componentType":5126,
			"count":168,
			"type":"VEC2"
		},
		{
			"bufferView":7,
			"componentType":5126,
			"count":168,
			"type":"VEC2"
		},
		{
			"bufferView":8,
			"componentType":5126,
			"count":168,
			"type":"VEC2"
		},
		{
			"bufferView":9,
			"componentType":5126,
			"count":168,
			"type":"VEC2"
		},
		{
			"bufferView":10,
			"componentType":5123,
			"count":324,
			"type":"SCALAR"
		}
	],
	"bufferViews":[
		{
			"buffer":0,
			"byteLength":2016,
			"byteOffset":0,
			"target":34962
		},
		{
			"buffer":0,
			"byteLength":2016,
			"byteOffset":2016,
			"target":34962
		},
		{
			"buffer":0,
			"byteLength":1344,
			"byteOffset":4032,
			"target":34962
		},
		{
			"buffer":0,
			"byteLength":1344,
			"byteOffset":5376,
			"target":34962
		},
		{
			"buffer":0,
			"byteLength":1344,
			"byteOffset":6720,
			"target":34962
		},
		{
			"buffer":0,
			"byteLength":1344,
			"byteOffset":8064,
			"target":34962
		},
		{
			"buffer":0,
			"byteLength":1344,
			"byteOffset":9408,
			"target":34962
		},
		{
			"buffer":0,
			"byteLength":1344,
			"byteOffset":10752,
			"target":34962
		},
		{
			"buffer":0,
			"byteLength":1344,
			"byteOffset":12096,
			"target":34962
		},
		{
			"buffer":0,
			"byteLength":1344,
			"byteOffset":13440,
			"target":34962
		},
		{
			"buffer":0,
			"byteLength":648,
			"byteOffset":14784,
			"target":34963
		}
	],
	"samplers":[
		{
			"magFilter":9729,
			"minFilter":9987
		}
	],
	"buffers":[
		{
			"byteLength":15432,
			"uri":"columna2.bin"
		}
	]
}
