{
	"asset":{
		"generator":"Khronos glTF Blender I/O v4.0.44",
		"version":"2.0"
	},
	"extensionsUsed":[
		"KHR_materials_specular"
	],
	"scene":0,
	"scenes":[
		{
			"name":"Scene",
			"nodes":[
				5
			]
		}
	],
	"nodes":[
		{
			"mesh":0,
			"name":"Main_Gates2_met_0"
		},
		{
			"children":[
				0
			],
			"name":"Main_Gates2.001"
		},
		{
			"children":[
				1
			],
			"name":"Main_Gates2",
			"rotation":[
				-0.7071069478988647,
				0,
				0,
				0.7071065902709961
			],
			"scale":[
				13.532551765441895,
				13.532547950744629,
				13.532547950744629
			],
			"translation":[
				2.7215018272399902,
				-5.6692471844144166e-05,
				-139.8600616455078
			]
		},
		{
			"children":[
				2
			],
			"name":"RootNode"
		},
		{
			"children":[
				3
			],
			"name":"W_D.fbx",
			"rotation":[
				0.70710688829422,
				0,
				0,
				0.7071066498756409
			],
			"scale":[
				0.009999999776482582,
				0.009999998845160007,
				0.009999998845160007
			]
		},
		{
			"children":[
				4
			],
			"name":"Sketchfab_model",
			"rotation":[
				-0.70710688829422,
				0,
				0,
				0.7071066498756409
			]
		}
	],
	"materials":[
		{
			"doubleSided":true,
			"extensions":{
				"KHR_materials_specular":{
					"specularTexture":{
						"index":0
					}
				}
			},
			"name":"material",
			"normalTexture":{
				"index":1
			},
			"pbrMetallicRoughness":{
				"baseColorTexture":{
					"index":2
				},
				"metallicRoughnessTexture":{
					"index":3
				}
			}
		},
		{
			"doubleSided":true,
			"extensions":{
				"KHR_materials_specular":{
					"specularTexture":{
						"index":4
					}
				}
			},
			"name":"Material.001",
			"normalTexture":{
				"index":5
			},
			"pbrMetallicRoughness":{
				"baseColorTexture":{
					"index":6
				},
				"metallicRoughnessTexture":{
					"index":7
				}
			}
		}
	],
	"meshes":[
		{
			"name":"Main_Gates2_met_0",
			"primitives":[
				{
					"attributes":{
						"POSITION":0,
						"NORMAL":1,
						"TEXCOORD_0":2,
						"TEXCOORD_1":3,
						"TEXCOORD_2":4,
						"TEXCOORD_3":5,
						"TEXCOORD_4":6,
						"TEXCOORD_5":7,
						"TEXCOORD_6":8,
						"TEXCOORD_7":9
					},
					"indices":10,
					"material":0
				},
				{
					"attributes":{
						"POSITION":11,
						"NORMAL":12,
						"TEXCOORD_0":13,
						"TEXCOORD_1":14,
						"TEXCOORD_2":15,
						"TEXCOORD_3":16,
						"TEXCOORD_4":17,
						"TEXCOORD_5":18,
						"TEXCOORD_6":19,
						"TEXCOORD_7":20
					},
					"indices":21,
					"material":1
				}
			]
		}
	],
	"textures":[
		{
			"sampler":0,
			"source":0
		},
		{
			"sampler":0,
			"source":1
		},
		{
			"sampler":0,
			"source":2
		},
		{
			"sampler":0,
			"source":3
		},
		{
			"sampler":0,
			"source":0
		},
		{
			"sampler":0,
			"source":1
		},
		{
			"sampler":0,
			"source":2
		},
		{
			"sampler":0,
			"source":3
		}
	],
	"images":[
		{
			"mimeType":"image/png",
			"name":"Material_specularf0",
			"uri":"textures/Material_specularf0.png"
		},
		{
			"mimeType":"image/png",
			"name":"Material_normal",
			"uri":"textures/Material_normal.png"
		},
		{
			"mimeType":"image/png",
			"name":"Material_baseColor",
			"uri":"textures/Material_baseColor.png"
		},
		{
			"mimeType":"image/png",
			"name":"Material_metallicRoughness",
			"uri":"textures/Material_metallicRoughness.png"
		}
	],
	"accessors":[
		{
			"bufferView":0,
			"componentType":5126,
			"count":2662,
			"max":[
				0.28801536560058594,
				3.259502410888672,
				26.413925170898438
			],
			"min":[
				-0.5226964950561523,
				-23.70124053955078,
				0.9585590362548828
			],
			"type":"VEC3"
		},
		{
			"bufferView":1,
			"componentType":5126,
			"count":2662,
			"type":"VEC3"
		},
		{
			"bufferView":2,
			"componentType":5126,
			"count":2662,
			"type":"VEC2"
		},
		{
			"bufferView":3,
			"componentType":5126,
			"count":2662,
			"type":"VEC2"
		},
		{
			"bufferView":4,
			"componentType":5126,
			"count":2662,
			"type":"VEC2"
		},
		{
			"bufferView":5,
			"componentType":5126,
			"count":2662,
			"type":"VEC2"
		},
		{
			"bufferView":6,
			"componentType":5126,
			"count":2662,
			"type":"VEC2"
		},
		{
			"bufferView":7,
			"componentType":5126,
			"count":2662,
			"type":"VEC2"
		},
		{
			"bufferView":8,
			"componentType":5126,
			"count":2662,
			"type":"VEC2"
		},
		{
			"bufferView":9,
			"componentType":5126,
			"count":2662,
			"type":"VEC2"
		},
		{
			"bufferView":10,
			"componentType":5123,
			"count":6249,
			"type":"SCALAR"
		},
		{
			"bufferView":11,
			"componentType":5126,
			"count":2153,
			"max":[
				2.4317431449890137,
				7.615827560424805,
				27.336315155029297
			],
			"min":[
				-2.824154853820801,
				-28.057567596435547,
				-2.193450927734375e-05
			],
			"type":"VEC3"
		},
		{
			"bufferView":12,
			"componentType":5126,
			"count":2153,
			"type":"VEC3"
		},
		{
			"bufferView":13,
			"componentType":5126,
			"count":2153,
			"type":"VEC2"
		},
		{
			"bufferView":14,
			"componentType":5126,
			"count":2153,
			"type":"VEC2"
		},
		{
			"bufferView":15,
			"componentType":5126,
			"count":2153,
			"type":"VEC2"
		},
		{
			"bufferView":16,
			"componentType":5126,
			"count":2153,
			"type":"VEC2"
		},
		{
			"bufferView":17,
			"componentType":5126,
			"count":2153,
			"type":"VEC2"
		},
		{
			"bufferView":18,
			"componentType":5126,
			"count":2153,
			"type":"VEC2"
		},
		{
			"bufferView":19,
			"componentType":5126,
			"count":2153,
			"type":"VEC2"
		},
		{
			"bufferView":20,
			"componentType":5126,
			"count":2153,
			"type":"VEC2"
		},
		{
			"bufferView":21,
			"componentType":5123,
			"count":4800,
			"type":"SCALAR"
		}
	],
	"bufferViews":[
		{
			"buffer":0,
			"byteLength":31944,
			"byteOffset":0,
			"target":34962
		},
		{
			"buffer":0,
			"byteLength":31944,
			"byteOffset":31944,
			"target":34962
		},
		{
			"buffer":0,
			"byteLength":21296,
			"byteOffset":63888,
			"target":34962
		},
		{
			"buffer":0,
			"byteLength":21296,
			"byteOffset":85184,
			"target":34962
		},
		{
			"buffer":0,
			"byteLength":21296,
			"byteOffset":106480,
			"target":34962
		},
		{
			"buffer":0,
			"byteLength":21296,
			"byteOffset":127776,
			"target":34962
		},
		{
			"buffer":0,
			"byteLength":21296,
			"byteOffset":149072,
			"target":34962
		},
		{
			"buffer":0,
			"byteLength":21296,
			"byteOffset":170368,
			"target":34962
		},
		{
			"buffer":0,
			"byteLength":21296,
			"byteOffset":191664,
			"target":34962
		},
		{
			"buffer":0,
			"byteLength":21296,
			"byteOffset":212960,
			"target":34962
		},
		{
			"buffer":0,
			"byteLength":12498,
			"byteOffset":234256,
			"target":34963
		},
		{
			"buffer":0,
			"byteLength":25836,
			"byteOffset":246756,
			"target":34962
		},
		{
			"buffer":0,
			"byteLength":25836,
			"byteOffset":272592,
			"target":34962
		},
		{
			"buffer":0,
			"byteLength":17224,
			"byteOffset":298428,
			"target":34962
		},
		{
			"buffer":0,
			"byteLength":17224,
			"byteOffset":315652,
			"target":34962
		},
		{
			"buffer":0,
			"byteLength":17224,
			"byteOffset":332876,
			"target":34962
		},
		{
			"buffer":0,
			"byteLength":17224,
			"byteOffset":350100,
			"target":34962
		},
		{
			"buffer":0,
			"byteLength":17224,
			"byteOffset":367324,
			"target":34962
		},
		{
			"buffer":0,
			"byteLength":17224,
			"byteOffset":384548,
			"target":34962
		},
		{
			"buffer":0,
			"byteLength":17224,
			"byteOffset":401772,
			"target":34962
		},
		{
			"buffer":0,
			"byteLength":17224,
			"byteOffset":418996,
			"target":34962
		},
		{
			"buffer":0,
			"byteLength":9600,
			"byteOffset":436220,
			"target":34963
		}
	],
	"samplers":[
		{
			"magFilter":9729,
			"minFilter":9987
		}
	],
	"buffers":[
		{
			"byteLength":445820,
			"uri":"puerta.bin"
		}
	]
}
