{
	"asset":{
		"generator":"Khronos glTF Blender I/O v4.0.44",
		"version":"2.0"
	},
	"extensionsUsed":[
		"KHR_materials_specular"
	],
	"scene":0,
	"scenes":[
		{
			"name":"Scene",
			"nodes":[
				4
			]
		}
	],
	"nodes":[
		{
			"mesh":0,
			"name":"Peak1.002_Material_0"
		},
		{
			"children":[
				0
			],
			"name":"Peak1.002",
			"rotation":[
				-0.7071069478988647,
				0,
				0,
				0.7071066498756409
			],
			"scale":[
				13.532550811767578,
				13.532546997070312,
				13.532546997070312
			],
			"translation":[
				-0.01821964979171753,
				-5.669246456818655e-05,
				-1.0054930448532104
			]
		},
		{
			"children":[
				1
			],
			"name":"RootNode"
		},
		{
			"children":[
				2
			],
			"name":"W_D.fbx",
			"rotation":[
				0.70710688829422,
				0,
				0,
				0.7071066498756409
			],
			"scale":[
				0.009999999776482582,
				0.009999999776482582,
				0.009999999776482582
			]
		},
		{
			"children":[
				3
			],
			"name":"Sketchfab_model",
			"rotation":[
				-0.70710688829422,
				0,
				0,
				0.7071066498756409
			]
		}
	],
	"materials":[
		{
			"doubleSided":true,
			"extensions":{
				"KHR_materials_specular":{
					"specularTexture":{
						"index":0
					}
				}
			},
			"name":"Material.007",
			"normalTexture":{
				"index":1
			},
			"pbrMetallicRoughness":{
				"baseColorTexture":{
					"index":2
				},
				"metallicRoughnessTexture":{
					"index":3
				}
			}
		}
	],
	"meshes":[
		{
			"name":"Peak1.002_Material_0.006",
			"primitives":[
				{
					"attributes":{
						"POSITION":0,
						"NORMAL":1,
						"TEXCOORD_0":2,
						"TEXCOORD_1":3,
						"TEXCOORD_2":4,
						"TEXCOORD_3":5,
						"TEXCOORD_4":6,
						"TEXCOORD_5":7,
						"TEXCOORD_6":8,
						"TEXCOORD_7":9
					},
					"indices":10,
					"material":0
				}
			]
		}
	],
	"textures":[
		{
			"sampler":0,
			"source":0
		},
		{
			"sampler":0,
			"source":1
		},
		{
			"sampler":0,
			"source":2
		},
		{
			"sampler":0,
			"source":3
		}
	],
	"images":[
		{
			"mimeType":"image/png",
			"name":"Material_specularf0",
			"uri":"textures/Material_specularf0.png"
		},
		{
			"mimeType":"image/png",
			"name":"Material_normal",
			"uri":"textures/Material_normal.png"
		},
		{
			"mimeType":"image/png",
			"name":"Material_baseColor",
			"uri":"textures/Material_baseColor.png"
		},
		{
			"mimeType":"image/png",
			"name":"Material_metallicRoughness",
			"uri":"textures/Material_metallicRoughness.png"
		}
	],
	"accessors":[
		{
			"bufferView":0,
			"componentType":5126,
			"count":343,
			"max":[
				1.5734272003173828,
				1.5734329223632812,
				8.362506866455078
			],
			"min":[
				-1.5734272003173828,
				-1.5734214782714844,
				0
			],
			"type":"VEC3"
		},
		{
			"bufferView":1,
			"componentType":5126,
			"count":343,
			"type":"VEC3"
		},
		{
			"bufferView":2,
			"componentType":5126,
			"count":343,
			"type":"VEC2"
		},
		{
			"bufferView":3,
			"componentType":5126,
			"count":343,
			"type":"VEC2"
		},
		{
			"bufferView":4,
			"componentType":5126,
			"count":343,
			"type":"VEC2"
		},
		{
			"bufferView":5,
			"componentType":5126,
			"count":343,
			"type":"VEC2"
		},
		{
			"bufferView":6,
			"componentType":5126,
			"count":343,
			"type":"VEC2"
		},
		{
			"bufferView":7,
			"componentType":5126,
			"count":343,
			"type":"VEC2"
		},
		{
			"bufferView":8,
			"componentType":5126,
			"count":343,
			"type":"VEC2"
		},
		{
			"bufferView":9,
			"componentType":5126,
			"count":343,
			"type":"VEC2"
		},
		{
			"bufferView":10,
			"componentType":5123,
			"count":558,
			"type":"SCALAR"
		}
	],
	"bufferViews":[
		{
			"buffer":0,
			"byteLength":4116,
			"byteOffset":0,
			"target":34962
		},
		{
			"buffer":0,
			"byteLength":4116,
			"byteOffset":4116,
			"target":34962
		},
		{
			"buffer":0,
			"byteLength":2744,
			"byteOffset":8232,
			"target":34962
		},
		{
			"buffer":0,
			"byteLength":2744,
			"byteOffset":10976,
			"target":34962
		},
		{
			"buffer":0,
			"byteLength":2744,
			"byteOffset":13720,
			"target":34962
		},
		{
			"buffer":0,
			"byteLength":2744,
			"byteOffset":16464,
			"target":34962
		},
		{
			"buffer":0,
			"byteLength":2744,
			"byteOffset":19208,
			"target":34962
		},
		{
			"buffer":0,
			"byteLength":2744,
			"byteOffset":21952,
			"target":34962
		},
		{
			"buffer":0,
			"byteLength":2744,
			"byteOffset":24696,
			"target":34962
		},
		{
			"buffer":0,
			"byteLength":2744,
			"byteOffset":27440,
			"target":34962
		},
		{
			"buffer":0,
			"byteLength":1116,
			"byteOffset":30184,
			"target":34963
		}
	],
	"samplers":[
		{
			"magFilter":9729,
			"minFilter":9987
		}
	],
	"buffers":[
		{
			"byteLength":31300,
			"uri":"tumba.bin"
		}
	]
}
