{
	"asset":{
		"generator":"Khronos glTF Blender I/O v4.0.44",
		"version":"2.0"
	},
	"extensionsUsed":[
		"KHR_materials_specular"
	],
	"scene":0,
	"scenes":[
		{
			"name":"Scene",
			"nodes":[
				5
			]
		}
	],
	"nodes":[
		{
			"name":"Fence3.001"
		},
		{
			"mesh":0,
			"name":"Fence3.002_Material_0"
		},
		{
			"children":[
				0,
				1
			],
			"name":"Fence3.002",
			"rotation":[
				-0.70710688829422,
				0,
				0,
				0.7071066498756409
			],
			"scale":[
				18,
				17.99999237060547,
				17.99999237060547
			],
			"translation":[
				-4.603667736053467,
				-5.66924900340382e-05,
				-1.0152586698532104
			]
		},
		{
			"children":[
				2
			],
			"name":"RootNode"
		},
		{
			"children":[
				3
			],
			"name":"W_D.fbx",
			"rotation":[
				0.70710688829422,
				0,
				0,
				0.7071066498756409
			],
			"scale":[
				0.009999999776482582,
				0.009999998845160007,
				0.009999998845160007
			]
		},
		{
			"children":[
				4
			],
			"name":"Sketchfab_model",
			"rotation":[
				-0.70710688829422,
				0,
				0,
				0.7071066498756409
			]
		}
	],
	"materials":[
		{
			"doubleSided":true,
			"extensions":{
				"KHR_materials_specular":{
					"specularTexture":{
						"index":0
					}
				}
			},
			"name":"Material.008",
			"normalTexture":{
				"index":1
			},
			"pbrMetallicRoughness":{
				"baseColorTexture":{
					"index":2
				},
				"metallicRoughnessTexture":{
					"index":3
				}
			}
		},
		{
			"doubleSided":true,
			"extensions":{
				"KHR_materials_specular":{
					"specularTexture":{
						"index":4
					}
				}
			},
			"name":"material.003",
			"normalTexture":{
				"index":5
			},
			"pbrMetallicRoughness":{
				"baseColorTexture":{
					"index":6
				},
				"metallicRoughnessTexture":{
					"index":7
				}
			}
		}
	],
	"meshes":[
		{
			"name":"Fence3.002_Material_0.003",
			"primitives":[
				{
					"attributes":{
						"POSITION":0,
						"NORMAL":1,
						"TEXCOORD_0":2,
						"TEXCOORD_1":3,
						"TEXCOORD_2":4,
						"TEXCOORD_3":5,
						"TEXCOORD_4":6,
						"TEXCOORD_5":7,
						"TEXCOORD_6":8,
						"TEXCOORD_7":9
					},
					"indices":10,
					"material":0
				},
				{
					"attributes":{
						"POSITION":11,
						"NORMAL":12,
						"TEXCOORD_0":13,
						"TEXCOORD_1":14,
						"TEXCOORD_2":15,
						"TEXCOORD_3":16,
						"TEXCOORD_4":17,
						"TEXCOORD_5":18,
						"TEXCOORD_6":19,
						"TEXCOORD_7":20
					},
					"indices":21,
					"material":1
				}
			]
		}
	],
	"textures":[
		{
			"sampler":0,
			"source":0
		},
		{
			"sampler":0,
			"source":1
		},
		{
			"sampler":0,
			"source":2
		},
		{
			"sampler":0,
			"source":3
		},
		{
			"sampler":0,
			"source":0
		},
		{
			"sampler":0,
			"source":1
		},
		{
			"sampler":0,
			"source":2
		},
		{
			"sampler":0,
			"source":3
		}
	],
	"images":[
		{
			"mimeType":"image/png",
			"name":"Material_specularf0",
			"uri":"textures/Material_specularf0.png"
		},
		{
			"mimeType":"image/png",
			"name":"Material_normal",
			"uri":"textures/Material_normal.png"
		},
		{
			"mimeType":"image/png",
			"name":"Material_baseColor",
			"uri":"textures/Material_baseColor.png"
		},
		{
			"mimeType":"image/png",
			"name":"Material_metallicRoughness",
			"uri":"textures/Material_metallicRoughness.png"
		}
	],
	"accessors":[
		{
			"bufferView":0,
			"componentType":5126,
			"count":296,
			"max":[
				1.4772305488586426,
				8.572517395019531,
				6.150359153747559
			],
			"min":[
				-1.477231502532959,
				-8.572517395019531,
				-1.049041748046875e-05
			],
			"type":"VEC3"
		},
		{
			"bufferView":1,
			"componentType":5126,
			"count":296,
			"type":"VEC3"
		},
		{
			"bufferView":2,
			"componentType":5126,
			"count":296,
			"type":"VEC2"
		},
		{
			"bufferView":3,
			"componentType":5126,
			"count":296,
			"type":"VEC2"
		},
		{
			"bufferView":4,
			"componentType":5126,
			"count":296,
			"type":"VEC2"
		},
		{
			"bufferView":5,
			"componentType":5126,
			"count":296,
			"type":"VEC2"
		},
		{
			"bufferView":6,
			"componentType":5126,
			"count":296,
			"type":"VEC2"
		},
		{
			"bufferView":7,
			"componentType":5126,
			"count":296,
			"type":"VEC2"
		},
		{
			"bufferView":8,
			"componentType":5126,
			"count":296,
			"type":"VEC2"
		},
		{
			"bufferView":9,
			"componentType":5126,
			"count":296,
			"type":"VEC2"
		},
		{
			"bufferView":10,
			"componentType":5123,
			"count":960,
			"type":"SCALAR"
		},
		{
			"bufferView":11,
			"componentType":5126,
			"count":807,
			"max":[
				0.37861302495002747,
				8.572515487670898,
				13.522101402282715
			],
			"min":[
				-0.37861356139183044,
				-8.572516441345215,
				4.09893798828125
			],
			"type":"VEC3"
		},
		{
			"bufferView":12,
			"componentType":5126,
			"count":807,
			"type":"VEC3"
		},
		{
			"bufferView":13,
			"componentType":5126,
			"count":807,
			"type":"VEC2"
		},
		{
			"bufferView":14,
			"componentType":5126,
			"count":807,
			"type":"VEC2"
		},
		{
			"bufferView":15,
			"componentType":5126,
			"count":807,
			"type":"VEC2"
		},
		{
			"bufferView":16,
			"componentType":5126,
			"count":807,
			"type":"VEC2"
		},
		{
			"bufferView":17,
			"componentType":5126,
			"count":807,
			"type":"VEC2"
		},
		{
			"bufferView":18,
			"componentType":5126,
			"count":807,
			"type":"VEC2"
		},
		{
			"bufferView":19,
			"componentType":5126,
			"count":807,
			"type":"VEC2"
		},
		{
			"bufferView":20,
			"componentType":5126,
			"count":807,
			"type":"VEC2"
		},
		{
			"bufferView":21,
			"componentType":5123,
			"count":1698,
			"type":"SCALAR"
		}
	],
	"bufferViews":[
		{
			"buffer":0,
			"byteLength":3552,
			"byteOffset":0,
			"target":34962
		},
		{
			"buffer":0,
			"byteLength":3552,
			"byteOffset":3552,
			"target":34962
		},
		{
			"buffer":0,
			"byteLength":2368,
			"byteOffset":7104,
			"target":34962
		},
		{
			"buffer":0,
			"byteLength":2368,
			"byteOffset":9472,
			"target":34962
		},
		{
			"buffer":0,
			"byteLength":2368,
			"byteOffset":11840,
			"target":34962
		},
		{
			"buffer":0,
			"byteLength":2368,
			"byteOffset":14208,
			"target":34962
		},
		{
			"buffer":0,
			"byteLength":2368,
			"byteOffset":16576,
			"target":34962
		},
		{
			"buffer":0,
			"byteLength":2368,
			"byteOffset":18944,
			"target":34962
		},
		{
			"buffer":0,
			"byteLength":2368,
			"byteOffset":21312,
			"target":34962
		},
		{
			"buffer":0,
			"byteLength":2368,
			"byteOffset":23680,
			"target":34962
		},
		{
			"buffer":0,
			"byteLength":1920,
			"byteOffset":26048,
			"target":34963
		},
		{
			"buffer":0,
			"byteLength":9684,
			"byteOffset":27968,
			"target":34962
		},
		{
			"buffer":0,
			"byteLength":9684,
			"byteOffset":37652,
			"target":34962
		},
		{
			"buffer":0,
			"byteLength":6456,
			"byteOffset":47336,
			"target":34962
		},
		{
			"buffer":0,
			"byteLength":6456,
			"byteOffset":53792,
			"target":34962
		},
		{
			"buffer":0,
			"byteLength":6456,
			"byteOffset":60248,
			"target":34962
		},
		{
			"buffer":0,
			"byteLength":6456,
			"byteOffset":66704,
			"target":34962
		},
		{
			"buffer":0,
			"byteLength":6456,
			"byteOffset":73160,
			"target":34962
		},
		{
			"buffer":0,
			"byteLength":6456,
			"byteOffset":79616,
			"target":34962
		},
		{
			"buffer":0,
			"byteLength":6456,
			"byteOffset":86072,
			"target":34962
		},
		{
			"buffer":0,
			"byteLength":6456,
			"byteOffset":92528,
			"target":34962
		},
		{
			"buffer":0,
			"byteLength":3396,
			"byteOffset":98984,
			"target":34963
		}
	],
	"samplers":[
		{
			"magFilter":9729,
			"minFilter":9987
		}
	],
	"buffers":[
		{
			"byteLength":102380,
			"uri":"valla3.bin"
		}
	]
}
