{
	"asset":{
		"generator":"Khronos glTF Blender I/O v4.0.44",
		"version":"2.0"
	},
	"extensionsUsed":[
		"KHR_materials_specular"
	],
	"scene":0,
	"scenes":[
		{
			"name":"Scene",
			"nodes":[
				5
			]
		}
	],
	"nodes":[
		{
			"name":"Fence2.001"
		},
		{
			"mesh":0,
			"name":"Fence2.002_Material_0"
		},
		{
			"children":[
				0,
				1
			],
			"name":"Fence2.002",
			"rotation":[
				-0.70710688829422,
				0,
				0,
				0.7071066498756409
			],
			"scale":[
				18,
				17.99999237060547,
				17.99999237060547
			],
			"translation":[
				-1.9451904296875,
				-5.66924900340382e-05,
				-0.631317138671875
			]
		},
		{
			"children":[
				2
			],
			"name":"RootNode"
		},
		{
			"children":[
				3
			],
			"name":"W_D.fbx",
			"rotation":[
				0.70710688829422,
				0,
				0,
				0.7071066498756409
			],
			"scale":[
				0.009999999776482582,
				0.009999998845160007,
				0.009999998845160007
			]
		},
		{
			"children":[
				4
			],
			"name":"Sketchfab_model",
			"rotation":[
				-0.70710688829422,
				0,
				0,
				0.7071066498756409
			]
		}
	],
	"materials":[
		{
			"doubleSided":true,
			"extensions":{
				"KHR_materials_specular":{
					"specularTexture":{
						"index":0
					}
				}
			},
			"name":"Material.004",
			"normalTexture":{
				"index":1
			},
			"pbrMetallicRoughness":{
				"baseColorTexture":{
					"index":2
				},
				"metallicRoughnessTexture":{
					"index":3
				}
			}
		},
		{
			"doubleSided":true,
			"extensions":{
				"KHR_materials_specular":{
					"specularTexture":{
						"index":4
					}
				}
			},
			"name":"material.002",
			"normalTexture":{
				"index":5
			},
			"pbrMetallicRoughness":{
				"baseColorTexture":{
					"index":6
				},
				"metallicRoughnessTexture":{
					"index":7
				}
			}
		}
	],
	"meshes":[
		{
			"name":"Fence2.002_Material_0.002",
			"primitives":[
				{
					"attributes":{
						"POSITION":0,
						"NORMAL":1,
						"TEXCOORD_0":2,
						"TEXCOORD_1":3,
						"TEXCOORD_2":4,
						"TEXCOORD_3":5,
						"TEXCOORD_4":6,
						"TEXCOORD_5":7,
						"TEXCOORD_6":8,
						"TEXCOORD_7":9
					},
					"indices":10,
					"material":0
				},
				{
					"attributes":{
						"POSITION":11,
						"NORMAL":12,
						"TEXCOORD_0":13,
						"TEXCOORD_1":14,
						"TEXCOORD_2":15,
						"TEXCOORD_3":16,
						"TEXCOORD_4":17,
						"TEXCOORD_5":18,
						"TEXCOORD_6":19,
						"TEXCOORD_7":20
					},
					"indices":21,
					"material":1
				}
			]
		}
	],
	"textures":[
		{
			"sampler":0,
			"source":0
		},
		{
			"sampler":0,
			"source":1
		},
		{
			"sampler":0,
			"source":2
		},
		{
			"sampler":0,
			"source":3
		},
		{
			"sampler":0,
			"source":0
		},
		{
			"sampler":0,
			"source":1
		},
		{
			"sampler":0,
			"source":2
		},
		{
			"sampler":0,
			"source":3
		}
	],
	"images":[
		{
			"mimeType":"image/png",
			"name":"Material_specularf0",
			"uri":"textures/Material_specularf0.png"
		},
		{
			"mimeType":"image/png",
			"name":"Material_normal",
			"uri":"textures/Material_normal.png"
		},
		{
			"mimeType":"image/png",
			"name":"Material_baseColor",
			"uri":"textures/Material_baseColor.png"
		},
		{
			"mimeType":"image/png",
			"name":"Material_metallicRoughness",
			"uri":"textures/Material_metallicRoughness.png"
		}
	],
	"accessors":[
		{
			"bufferView":0,
			"componentType":5126,
			"count":298,
			"max":[
				1.4772313833236694,
				8.572517395019531,
				6.024500370025635
			],
			"min":[
				-1.4772313833236694,
				-8.572517395019531,
				-1.049041748046875e-05
			],
			"type":"VEC3"
		},
		{
			"bufferView":1,
			"componentType":5126,
			"count":298,
			"type":"VEC3"
		},
		{
			"bufferView":2,
			"componentType":5126,
			"count":298,
			"type":"VEC2"
		},
		{
			"bufferView":3,
			"componentType":5126,
			"count":298,
			"type":"VEC2"
		},
		{
			"bufferView":4,
			"componentType":5126,
			"count":298,
			"type":"VEC2"
		},
		{
			"bufferView":5,
			"componentType":5126,
			"count":298,
			"type":"VEC2"
		},
		{
			"bufferView":6,
			"componentType":5126,
			"count":298,
			"type":"VEC2"
		},
		{
			"bufferView":7,
			"componentType":5126,
			"count":298,
			"type":"VEC2"
		},
		{
			"bufferView":8,
			"componentType":5126,
			"count":298,
			"type":"VEC2"
		},
		{
			"bufferView":9,
			"componentType":5126,
			"count":298,
			"type":"VEC2"
		},
		{
			"bufferView":10,
			"componentType":5123,
			"count":960,
			"type":"SCALAR"
		},
		{
			"bufferView":11,
			"componentType":5126,
			"count":796,
			"max":[
				0.3786129355430603,
				8.572515487670898,
				13.522101402282715
			],
			"min":[
				-0.37861305475234985,
				-8.572516441345215,
				4.09893798828125
			],
			"type":"VEC3"
		},
		{
			"bufferView":12,
			"componentType":5126,
			"count":796,
			"type":"VEC3"
		},
		{
			"bufferView":13,
			"componentType":5126,
			"count":796,
			"type":"VEC2"
		},
		{
			"bufferView":14,
			"componentType":5126,
			"count":796,
			"type":"VEC2"
		},
		{
			"bufferView":15,
			"componentType":5126,
			"count":796,
			"type":"VEC2"
		},
		{
			"bufferView":16,
			"componentType":5126,
			"count":796,
			"type":"VEC2"
		},
		{
			"bufferView":17,
			"componentType":5126,
			"count":796,
			"type":"VEC2"
		},
		{
			"bufferView":18,
			"componentType":5126,
			"count":796,
			"type":"VEC2"
		},
		{
			"bufferView":19,
			"componentType":5126,
			"count":796,
			"type":"VEC2"
		},
		{
			"bufferView":20,
			"componentType":5126,
			"count":796,
			"type":"VEC2"
		},
		{
			"bufferView":21,
			"componentType":5123,
			"count":1698,
			"type":"SCALAR"
		}
	],
	"bufferViews":[
		{
			"buffer":0,
			"byteLength":3576,
			"byteOffset":0,
			"target":34962
		},
		{
			"buffer":0,
			"byteLength":3576,
			"byteOffset":3576,
			"target":34962
		},
		{
			"buffer":0,
			"byteLength":2384,
			"byteOffset":7152,
			"target":34962
		},
		{
			"buffer":0,
			"byteLength":2384,
			"byteOffset":9536,
			"target":34962
		},
		{
			"buffer":0,
			"byteLength":2384,
			"byteOffset":11920,
			"target":34962
		},
		{
			"buffer":0,
			"byteLength":2384,
			"byteOffset":14304,
			"target":34962
		},
		{
			"buffer":0,
			"byteLength":2384,
			"byteOffset":16688,
			"target":34962
		},
		{
			"buffer":0,
			"byteLength":2384,
			"byteOffset":19072,
			"target":34962
		},
		{
			"buffer":0,
			"byteLength":2384,
			"byteOffset":21456,
			"target":34962
		},
		{
			"buffer":0,
			"byteLength":2384,
			"byteOffset":23840,
			"target":34962
		},
		{
			"buffer":0,
			"byteLength":1920,
			"byteOffset":26224,
			"target":34963
		},
		{
			"buffer":0,
			"byteLength":9552,
			"byteOffset":28144,
			"target":34962
		},
		{
			"buffer":0,
			"byteLength":9552,
			"byteOffset":37696,
			"target":34962
		},
		{
			"buffer":0,
			"byteLength":6368,
			"byteOffset":47248,
			"target":34962
		},
		{
			"buffer":0,
			"byteLength":6368,
			"byteOffset":53616,
			"target":34962
		},
		{
			"buffer":0,
			"byteLength":6368,
			"byteOffset":59984,
			"target":34962
		},
		{
			"buffer":0,
			"byteLength":6368,
			"byteOffset":66352,
			"target":34962
		},
		{
			"buffer":0,
			"byteLength":6368,
			"byteOffset":72720,
			"target":34962
		},
		{
			"buffer":0,
			"byteLength":6368,
			"byteOffset":79088,
			"target":34962
		},
		{
			"buffer":0,
			"byteLength":6368,
			"byteOffset":85456,
			"target":34962
		},
		{
			"buffer":0,
			"byteLength":6368,
			"byteOffset":91824,
			"target":34962
		},
		{
			"buffer":0,
			"byteLength":3396,
			"byteOffset":98192,
			"target":34963
		}
	],
	"samplers":[
		{
			"magFilter":9729,
			"minFilter":9987
		}
	],
	"buffers":[
		{
			"byteLength":101588,
			"uri":"valla2.bin"
		}
	]
}
