{
	"asset":{
		"generator":"Khronos glTF Blender I/O v4.0.44",
		"version":"2.0"
	},
	"extensionsUsed":[
		"KHR_materials_specular"
	],
	"scene":0,
	"scenes":[
		{
			"name":"Scene",
			"nodes":[
				5
			]
		}
	],
	"nodes":[
		{
			"name":"Fence1.001"
		},
		{
			"mesh":0,
			"name":"Fence1.002_Material_0"
		},
		{
			"children":[
				0,
				1
			],
			"name":"Fence1.002",
			"rotation":[
				-0.70710688829422,
				0,
				0,
				0.7071066498756409
			],
			"scale":[
				18,
				17.99999237060547,
				17.99999237060547
			],
			"translation":[
				-0.01821965165436268,
				-5.66924900340382e-05,
				0.0520324669778347
			]
		},
		{
			"children":[
				2
			],
			"name":"RootNode"
		},
		{
			"children":[
				3
			],
			"name":"W_D.fbx",
			"rotation":[
				0.70710688829422,
				0,
				0,
				0.7071066498756409
			],
			"scale":[
				0.009999999776482582,
				0.009999998845160007,
				0.009999998845160007
			]
		},
		{
			"children":[
				4
			],
			"name":"Sketchfab_model",
			"rotation":[
				-0.70710688829422,
				0,
				0,
				0.7071066498756409
			]
		}
	],
	"materials":[
		{
			"doubleSided":true,
			"extensions":{
				"KHR_materials_specular":{
					"specularTexture":{
						"index":0
					}
				}
			},
			"name":"Material.003",
			"normalTexture":{
				"index":1
			},
			"pbrMetallicRoughness":{
				"baseColorTexture":{
					"index":2
				},
				"metallicRoughnessTexture":{
					"index":3
				}
			}
		},
		{
			"doubleSided":true,
			"extensions":{
				"KHR_materials_specular":{
					"specularTexture":{
						"index":4
					}
				}
			},
			"name":"material.001",
			"normalTexture":{
				"index":5
			},
			"pbrMetallicRoughness":{
				"baseColorTexture":{
					"index":6
				},
				"metallicRoughnessTexture":{
					"index":7
				}
			}
		}
	],
	"meshes":[
		{
			"name":"Fence1.002_Material_0.001",
			"primitives":[
				{
					"attributes":{
						"POSITION":0,
						"NORMAL":1,
						"TEXCOORD_0":2,
						"TEXCOORD_1":3,
						"TEXCOORD_2":4,
						"TEXCOORD_3":5,
						"TEXCOORD_4":6,
						"TEXCOORD_5":7,
						"TEXCOORD_6":8,
						"TEXCOORD_7":9
					},
					"indices":10,
					"material":0
				},
				{
					"attributes":{
						"POSITION":11,
						"NORMAL":12,
						"TEXCOORD_0":13,
						"TEXCOORD_1":14,
						"TEXCOORD_2":15,
						"TEXCOORD_3":16,
						"TEXCOORD_4":17,
						"TEXCOORD_5":18,
						"TEXCOORD_6":19,
						"TEXCOORD_7":20
					},
					"indices":21,
					"material":1
				}
			]
		}
	],
	"textures":[
		{
			"sampler":0,
			"source":0
		},
		{
			"sampler":0,
			"source":1
		},
		{
			"sampler":0,
			"source":2
		},
		{
			"sampler":0,
			"source":3
		},
		{
			"sampler":0,
			"source":0
		},
		{
			"sampler":0,
			"source":1
		},
		{
			"sampler":0,
			"source":2
		},
		{
			"sampler":0,
			"source":3
		}
	],
	"images":[
		{
			"mimeType":"image/png",
			"name":"Material_specularf0",
			"uri":"textures/Material_specularf0.png"
		},
		{
			"mimeType":"image/png",
			"name":"Material_normal",
			"uri":"textures/Material_normal.png"
		},
		{
			"mimeType":"image/png",
			"name":"Material_baseColor",
			"uri":"textures/Material_baseColor.png"
		},
		{
			"mimeType":"image/png",
			"name":"Material_metallicRoughness",
			"uri":"textures/Material_metallicRoughness.png"
		}
	],
	"accessors":[
		{
			"bufferView":0,
			"componentType":5126,
			"count":120,
			"max":[
				1.4772310256958008,
				8.572517395019531,
				3.1312708854675293
			],
			"min":[
				-1.477231502532959,
				-8.572517395019531,
				-9.5367431640625e-06
			],
			"type":"VEC3"
		},
		{
			"bufferView":1,
			"componentType":5126,
			"count":120,
			"type":"VEC3"
		},
		{
			"bufferView":2,
			"componentType":5126,
			"count":120,
			"type":"VEC2"
		},
		{
			"bufferView":3,
			"componentType":5126,
			"count":120,
			"type":"VEC2"
		},
		{
			"bufferView":4,
			"componentType":5126,
			"count":120,
			"type":"VEC2"
		},
		{
			"bufferView":5,
			"componentType":5126,
			"count":120,
			"type":"VEC2"
		},
		{
			"bufferView":6,
			"componentType":5126,
			"count":120,
			"type":"VEC2"
		},
		{
			"bufferView":7,
			"componentType":5126,
			"count":120,
			"type":"VEC2"
		},
		{
			"bufferView":8,
			"componentType":5126,
			"count":120,
			"type":"VEC2"
		},
		{
			"bufferView":9,
			"componentType":5126,
			"count":120,
			"type":"VEC2"
		},
		{
			"bufferView":10,
			"componentType":5123,
			"count":312,
			"type":"SCALAR"
		},
		{
			"bufferView":11,
			"componentType":5126,
			"count":1299,
			"max":[
				0.47897869348526,
				8.572516441345215,
				13.522101402282715
			],
			"min":[
				-0.4789782166481018,
				-8.572517395019531,
				2.4367051124572754
			],
			"type":"VEC3"
		},
		{
			"bufferView":12,
			"componentType":5126,
			"count":1299,
			"type":"VEC3"
		},
		{
			"bufferView":13,
			"componentType":5126,
			"count":1299,
			"type":"VEC2"
		},
		{
			"bufferView":14,
			"componentType":5126,
			"count":1299,
			"type":"VEC2"
		},
		{
			"bufferView":15,
			"componentType":5126,
			"count":1299,
			"type":"VEC2"
		},
		{
			"bufferView":16,
			"componentType":5126,
			"count":1299,
			"type":"VEC2"
		},
		{
			"bufferView":17,
			"componentType":5126,
			"count":1299,
			"type":"VEC2"
		},
		{
			"bufferView":18,
			"componentType":5126,
			"count":1299,
			"type":"VEC2"
		},
		{
			"bufferView":19,
			"componentType":5126,
			"count":1299,
			"type":"VEC2"
		},
		{
			"bufferView":20,
			"componentType":5126,
			"count":1299,
			"type":"VEC2"
		},
		{
			"bufferView":21,
			"componentType":5123,
			"count":2991,
			"type":"SCALAR"
		}
	],
	"bufferViews":[
		{
			"buffer":0,
			"byteLength":1440,
			"byteOffset":0,
			"target":34962
		},
		{
			"buffer":0,
			"byteLength":1440,
			"byteOffset":1440,
			"target":34962
		},
		{
			"buffer":0,
			"byteLength":960,
			"byteOffset":2880,
			"target":34962
		},
		{
			"buffer":0,
			"byteLength":960,
			"byteOffset":3840,
			"target":34962
		},
		{
			"buffer":0,
			"byteLength":960,
			"byteOffset":4800,
			"target":34962
		},
		{
			"buffer":0,
			"byteLength":960,
			"byteOffset":5760,
			"target":34962
		},
		{
			"buffer":0,
			"byteLength":960,
			"byteOffset":6720,
			"target":34962
		},
		{
			"buffer":0,
			"byteLength":960,
			"byteOffset":7680,
			"target":34962
		},
		{
			"buffer":0,
			"byteLength":960,
			"byteOffset":8640,
			"target":34962
		},
		{
			"buffer":0,
			"byteLength":960,
			"byteOffset":9600,
			"target":34962
		},
		{
			"buffer":0,
			"byteLength":624,
			"byteOffset":10560,
			"target":34963
		},
		{
			"buffer":0,
			"byteLength":15588,
			"byteOffset":11184,
			"target":34962
		},
		{
			"buffer":0,
			"byteLength":15588,
			"byteOffset":26772,
			"target":34962
		},
		{
			"buffer":0,
			"byteLength":10392,
			"byteOffset":42360,
			"target":34962
		},
		{
			"buffer":0,
			"byteLength":10392,
			"byteOffset":52752,
			"target":34962
		},
		{
			"buffer":0,
			"byteLength":10392,
			"byteOffset":63144,
			"target":34962
		},
		{
			"buffer":0,
			"byteLength":10392,
			"byteOffset":73536,
			"target":34962
		},
		{
			"buffer":0,
			"byteLength":10392,
			"byteOffset":83928,
			"target":34962
		},
		{
			"buffer":0,
			"byteLength":10392,
			"byteOffset":94320,
			"target":34962
		},
		{
			"buffer":0,
			"byteLength":10392,
			"byteOffset":104712,
			"target":34962
		},
		{
			"buffer":0,
			"byteLength":10392,
			"byteOffset":115104,
			"target":34962
		},
		{
			"buffer":0,
			"byteLength":5982,
			"byteOffset":125496,
			"target":34963
		}
	],
	"samplers":[
		{
			"magFilter":9729,
			"minFilter":9987
		}
	],
	"buffers":[
		{
			"byteLength":131480,
			"uri":"valla1.bin"
		}
	]
}
